<svg width="182" height="32" viewBox="0 0 182 32" fill="none" xmlns="http://www.w3.org/2000/svg">
<path d="M7.476 0.880001L13.902 14.068L20.412 0.880001H27.93L17.304 20.536V30.7H10.458V20.452L0 0.880001H7.476Z" fill="white"/>
<path d="M36.8041 31.12C34.2841 31.12 32.1421 30.588 30.3781 29.524C28.6421 28.46 27.3121 27.06 26.3881 25.324C25.4641 23.588 25.0021 21.712 25.0021 19.696C25.0021 17.652 25.4641 15.762 26.3881 14.026C27.3121 12.29 28.6561 10.89 30.4201 9.826C32.1841 8.762 34.3121 8.23 36.8041 8.23C39.2961 8.23 41.4241 8.762 43.1881 9.826C44.9521 10.89 46.2961 12.29 47.2201 14.026C48.1441 15.762 48.6061 17.652 48.6061 19.696C48.6061 21.712 48.1441 23.588 47.2201 25.324C46.2961 27.06 44.9521 28.46 43.1881 29.524C41.4241 30.588 39.2961 31.12 36.8041 31.12ZM31.8901 19.696C31.8901 21.404 32.3521 22.79 33.2761 23.854C34.2281 24.918 35.4041 25.45 36.8041 25.45C38.1761 25.45 39.3241 24.918 40.2481 23.854C41.2001 22.79 41.6761 21.404 41.6761 19.696C41.6761 17.988 41.2001 16.602 40.2481 15.538C39.3241 14.474 38.1761 13.942 36.8041 13.942C35.4041 13.942 34.2281 14.474 33.2761 15.538C32.3521 16.602 31.8901 17.988 31.8901 19.696Z" fill="white"/>
<path d="M51.7289 22.762V8.65H58.4489V21.292C58.4489 24.064 59.4709 25.45 61.5149 25.45C62.4109 25.45 63.2789 25.212 64.1189 24.736C64.9589 24.232 65.7009 23.406 66.3449 22.258V8.65H73.0649V23.224C73.0649 23.896 73.1629 24.372 73.3589 24.652C73.5829 24.932 73.9609 25.086 74.4929 25.114V30.7C73.8489 30.812 73.3029 30.896 72.8549 30.952C72.4069 31.008 72.0009 31.036 71.6369 31.036C69.2289 31.036 67.8569 30.098 67.5209 28.222L67.3949 26.878C66.3869 28.334 65.1269 29.412 63.6149 30.112C62.1309 30.784 60.4649 31.12 58.6169 31.12C56.3769 31.12 54.6689 30.406 53.4929 28.978C52.3169 27.55 51.7289 25.478 51.7289 22.762Z" fill="white"/>
<path d="M92.2569 14.404C90.6329 14.432 89.1629 14.698 87.8469 15.202C86.5309 15.706 85.5789 16.462 84.9909 17.47V30.7H78.2709V8.65H84.4449V13.102C85.2009 11.618 86.1809 10.456 87.3849 9.616C88.5889 8.776 89.8489 8.342 91.1649 8.314C91.7249 8.314 92.0889 8.328 92.2569 8.356V14.404Z" fill="white"/>
<path d="M116.92 6.928H107.848V30.7H100.96V6.928H91.8458V0.880001H116.92V6.928Z" fill="white"/>
<path d="M126.382 31.12C123.862 31.12 121.72 30.588 119.956 29.524C118.22 28.46 116.89 27.06 115.966 25.324C115.042 23.588 114.58 21.712 114.58 19.696C114.58 17.652 115.042 15.762 115.966 14.026C116.89 12.29 118.234 10.89 119.998 9.826C121.762 8.762 123.89 8.23 126.382 8.23C128.874 8.23 131.002 8.762 132.766 9.826C134.53 10.89 135.874 12.29 136.798 14.026C137.722 15.762 138.184 17.652 138.184 19.696C138.184 21.712 137.722 23.588 136.798 25.324C135.874 27.06 134.53 28.46 132.766 29.524C131.002 30.588 128.874 31.12 126.382 31.12ZM121.468 19.696C121.468 21.404 121.93 22.79 122.854 23.854C123.806 24.918 124.982 25.45 126.382 25.45C127.754 25.45 128.902 24.918 129.826 23.854C130.778 22.79 131.254 21.404 131.254 19.696C131.254 17.988 130.778 16.602 129.826 15.538C128.902 14.474 127.754 13.942 126.382 13.942C124.982 13.942 123.806 14.474 122.854 15.538C121.93 16.602 121.468 17.988 121.468 19.696Z" fill="white"/>
<path d="M141.307 22.762V8.65H148.027V21.292C148.027 24.064 149.049 25.45 151.093 25.45C151.989 25.45 152.857 25.212 153.697 24.736C154.537 24.232 155.279 23.406 155.923 22.258V8.65H162.643V23.224C162.643 23.896 162.741 24.372 162.937 24.652C163.161 24.932 163.539 25.086 164.071 25.114V30.7C163.427 30.812 162.881 30.896 162.433 30.952C161.985 31.008 161.579 31.036 161.215 31.036C158.807 31.036 157.435 30.098 157.099 28.222L156.973 26.878C155.965 28.334 154.705 29.412 153.193 30.112C151.709 30.784 150.043 31.12 148.195 31.12C145.955 31.12 144.247 30.406 143.071 28.978C141.895 27.55 141.307 25.478 141.307 22.762Z" fill="white"/>
<path d="M181.835 14.404C180.211 14.432 178.741 14.698 177.425 15.202C176.109 15.706 175.157 16.462 174.569 17.47V30.7H167.849V8.65H174.023V13.102C174.779 11.618 175.759 10.456 176.963 9.616C178.167 8.776 179.427 8.342 180.743 8.314C181.303 8.314 181.667 8.328 181.835 8.356V14.404Z" fill="white"/>
</svg>
